<svg xmlns="http://www.w3.org/2000/svg" width="1180" height="610" viewBox="0 0 1180 610" role="img" aria-label="Raunak Kumar — Software Developer and Computer Science student">
  <defs>
    <linearGradient id="bg" x1="0" y1="0" x2="1" y2="1">
      <stop offset="0" stop-color="#030712"/>
      <stop offset="0.55" stop-color="#07111F"/>
      <stop offset="1" stop-color="#0B1220"/>
      <animate attributeName="x1" values="0;0.25;0" dur="12s" repeatCount="indefinite"/>
    </linearGradient>
    <linearGradient id="accent" x1="0" y1="0" x2="1" y2="0">
      <stop offset="0" stop-color="#22D3EE"/>
      <stop offset="0.5" stop-color="#7C3AED"/>
      <stop offset="1" stop-color="#10B981"/>
    </linearGradient>
    <filter id="glow">
      <feGaussianBlur stdDeviation="3" result="b"/>
      <feMerge><feMergeNode in="b"/><feMergeNode in="SourceGraphic"/></feMerge>
    </filter>
    <clipPath id="clip"><rect x="18" y="18" width="1144" height="574" rx="24"/></clipPath>
  </defs>

  <rect width="1180" height="610" rx="28" fill="url(#bg)"/>
  <rect x="18" y="18" width="1144" height="574" rx="24" fill="#0F172A" fill-opacity=".72" stroke="#334155" stroke-width="1.5"/>
  <rect x="18" y="18" width="1144" height="4" rx="2" fill="url(#accent)" filter="url(#glow)">
    <animate attributeName="opacity" values=".45;1;.45" dur="4s" repeatCount="indefinite"/>
  </rect>

  <g clip-path="url(#clip)" font-family="ui-monospace,SFMono-Regular,Menlo,Monaco,Consolas,monospace">
    <text x="48" y="60" fill="#94A3B8" font-size="14" letter-spacing="3">RAUNAK.KUMAR / DEVELOPER.PROFILE</text>
    <circle cx="1090" cy="51" r="5" fill="#10B981"><animate attributeName="opacity" values=".35;1;.35" dur="2.2s" repeatCount="indefinite"/></circle>
    <circle cx="1110" cy="51" r="5" fill="#22D3EE"><animate attributeName="opacity" values="1;.35;1" dur="2.8s" repeatCount="indefinite"/></circle>

    <line x1="468" y1="82" x2="468" y2="565" stroke="#334155" stroke-opacity=".65"/>
    <line x1="48" y1="82" x2="1132" y2="82" stroke="#334155" stroke-opacity=".65"/>

    <text x="55" y="112" fill="#22D3EE" font-size="13" letter-spacing="2">VISUAL.MAP</text>

    <!-- Terminal identity visual -->
    <rect x="52" y="138" width="375" height="300" rx="18" fill="#030712" fill-opacity=".72" stroke="#334155"/>
    <circle cx="76" cy="162" r="5" fill="#F87171"/>
    <circle cx="94" cy="162" r="5" fill="#FBBF24"/>
    <circle cx="112" cy="162" r="5" fill="#34D399"/>
    <text x="72" y="202" fill="#64748B" font-size="12">$ whoami</text>
    <text x="72" y="229" fill="#F8FAFC" font-size="24" font-weight="700">raunak@developer</text>
    <text x="72" y="257" fill="#22D3EE" font-size="13">$ ./build-profile.sh</text>

    <g fill="#94A3B8" font-size="11">
      <text x="72" y="288">[■■■■■■■■■■■■■■■■■■] 100%</text>
      <text x="72" y="312">Java        ██████████████</text>
      <text x="72" y="334">DSA         █████████████</text>
      <text x="72" y="356">Full-Stack  ██████████████</text>
      <text x="72" y="378">APIs        █████████████</text>
    </g>

    <text x="72" y="414" fill="#10B981" font-size="12">status: building • learning • solving</text>

    <text x="492" y="112" fill="#22D3EE" font-size="13" letter-spacing="2">SYSTEM.INFO</text>
    <text x="492" y="143" fill="#94A3B8" font-size="13">raunak@developer:~$ ./profile.sh</text>

    <g font-size="14">
      <text x="492" y="180" fill="#64748B">&gt;</text><text x="515" y="180" fill="#94A3B8">NAME</text><text x="625" y="180" fill="#F8FAFC">Raunak Kumar</text>
      <text x="492" y="210" fill="#64748B">&gt;</text><text x="515" y="210" fill="#94A3B8">ROLE</text><text x="625" y="210" fill="#F8FAFC">Software Developer</text>
      <text x="492" y="240" fill="#64748B">&gt;</text><text x="515" y="240" fill="#94A3B8">EDUCATION</text><text x="625" y="240" fill="#F8FAFC">B.Tech CSE</text>
      <text x="492" y="270" fill="#64748B">&gt;</text><text x="515" y="270" fill="#94A3B8">LOCATION</text><text x="625" y="270" fill="#F8FAFC">Bihar, India</text>
      <text x="492" y="300" fill="#64748B">&gt;</text><text x="515" y="300" fill="#94A3B8">FOCUS</text><text x="625" y="300" fill="#22D3EE">Java • DSA • Full-Stack</text>
      <text x="492" y="330" fill="#64748B">&gt;</text><text x="515" y="330" fill="#94A3B8">BACKEND</text><text x="625" y="330" fill="#22D3EE">Node.js • Express.js</text>
      <text x="492" y="360" fill="#64748B">&gt;</text><text x="515" y="360" fill="#94A3B8">DATABASE</text><text x="625" y="360" fill="#22D3EE">MySQL • MongoDB</text>
    </g>

    <text x="492" y="405" fill="#94A3B8" font-size="12">CORE STACK</text>
    <g font-size="11" fill="#E2E8F0">
      <rect x="492" y="420" width="74" height="28" rx="14" fill="#111827" stroke="#22D3EE"/><text x="513" y="438">Java</text>
      <rect x="574" y="420" width="98" height="28" rx="14" fill="#111827" stroke="#334155"/><text x="592" y="438">JavaScript</text>
      <rect x="680" y="420" width="62" height="28" rx="14" fill="#111827" stroke="#334155"/><text x="699" y="438">SQL</text>
      <rect x="750" y="420" width="82" height="28" rx="14" fill="#111827" stroke="#334155"/><text x="768" y="438">Angular</text>
      <rect x="840" y="420" width="92" height="28" rx="14" fill="#111827" stroke="#334155"/><text x="855" y="438">Node.js</text>
      <rect x="940" y="420" width="98" height="28" rx="14" fill="#111827" stroke="#334155"/><text x="957" y="438">Express.js</text>
      <rect x="1046" y="420" width="82" height="28" rx="14" fill="#111827" stroke="#334155"/><text x="1061" y="438">MongoDB</text>

      <rect x="492" y="458" width="72" height="28" rx="14" fill="#111827" stroke="#334155"/><text x="512" y="476">MySQL</text>
      <rect x="572" y="458" width="70" height="28" rx="14" fill="#111827" stroke="#334155"/><text x="592" y="476">React</text>
      <rect x="650" y="458" width="70" height="28" rx="14" fill="#111827" stroke="#334155"/><text x="669" y="476">Python</text>
      <rect x="728" y="458" width="52" height="28" rx="14" fill="#111827" stroke="#334155"/><text x="745" y="476">C</text>
      <rect x="788" y="458" width="62" height="28" rx="14" fill="#111827" stroke="#334155"/><text x="806" y="476">REST</text>
      <rect x="858" y="458" width="68" height="28" rx="14" fill="#111827" stroke="#334155"/><text x="878" y="476">DSA</text>
      <rect x="934" y="458" width="66" height="28" rx="14" fill="#111827" stroke="#334155"/><text x="951" y="476">Git</text>
      <rect x="1008" y="458" width="120" height="28" rx="14" fill="#111827" stroke="#334155"/><text x="1027" y="476">Postman</text>
    </g>

    <text x="492" y="525" fill="#64748B" font-size="11">terminal@profile:~$ </text>
    <text x="646" y="525" fill="#F8FAFC" font-size="11">java solve.java</text>
    <rect x="730" y="514" width="7" height="14" fill="#22D3EE">
      <animate attributeName="opacity" values="1;0;1" dur="1s" repeatCount="indefinite"/>
    </rect>

    <text x="55" y="480" fill="#94A3B8" font-size="12">FEATURED.PROJECTS</text>
    <text x="55" y="510" fill="#F8FAFC" font-size="13" font-weight="700">DevInsight</text>
    <text x="55" y="529" fill="#64748B" font-size="11">AI codebase understanding • Angular • Node • MongoDB</text>
    <text x="55" y="555" fill="#F8FAFC" font-size="13" font-weight="700">KhetLoom</text>
    <text x="55" y="574" fill="#64748B" font-size="11">Smart farming • IoT • ML • Node • MongoDB</text>
  </g>
</svg>